<svg width="36" height="36" viewBox="0 0 36 36" fill="none" xmlns="http://www.w3.org/2000/svg">
<rect x="0.5" y="0.5" width="35" height="35" rx="6.5" fill="#918DAC" stroke="black"/>
<path fill-rule="evenodd" clip-rule="evenodd" d="M21.5289 11.2908C21.5289 9.47335 20.0555 8 18.2381 8C16.4206 8 14.9472 9.47335 14.9472 11.2908L14.9472 14.9473H11.2908C9.47335 14.9473 8 16.4206 8 18.2381C8 20.0555 9.47335 21.5289 11.2908 21.5289H14.9472L14.9472 25.1854C14.9472 27.0028 16.4206 28.4762 18.2381 28.4762C20.0555 28.4762 21.5289 27.0028 21.5289 25.1854V21.5289H25.1854C27.0028 21.5289 28.4762 20.0555 28.4762 18.2381C28.4762 16.4206 27.0028 14.9473 25.1854 14.9473H21.5289V11.2908Z" fill="#220C3A"/>
</svg>
