<svg width="24" height="24" viewBox="0 0 24 24" fill="none" xmlns="http://www.w3.org/2000/svg">
<path d="M19.3708 4.38386C18.476 3.34059 17.3696 2.49939 16.1251 1.91602C14.8805 1.33264 13.5262 1.02041 12.1519 1C10.7776 1.02041 9.42329 1.33264 8.17875 1.91602C6.93422 2.49939 5.82787 3.34059 4.93301 4.38386C3.02192 6.56804 1.97845 9.37739 2.00034 12.2795V16.7913C2.00034 17.6888 2.35685 18.5495 2.99145 19.1841C3.62604 19.8187 4.48674 20.1752 5.3842 20.1752C6.28165 20.1752 7.14235 19.8187 7.77694 19.1841C8.41154 18.5495 8.76805 17.6888 8.76805 16.7913V13.4075C8.76805 12.51 8.41154 11.6493 7.77694 11.0147C7.14235 10.3801 6.28165 10.0236 5.3842 10.0236C5.08235 10.0274 4.78247 10.073 4.49311 10.159C4.81479 8.56328 5.54551 7.07852 6.61366 5.8502C7.29808 5.04745 8.14646 4.40058 9.10175 3.95309C10.057 3.5056 11.0971 3.26788 12.1519 3.25591C13.2067 3.26788 14.2468 3.5056 15.2021 3.95309C16.1574 4.40058 17.0057 5.04745 17.6902 5.8502C18.7583 7.07852 19.489 8.56328 19.8107 10.159C19.5214 10.073 19.2215 10.0274 18.9196 10.0236C18.0222 10.0236 17.1615 10.3801 16.5269 11.0147C15.8923 11.6493 15.5358 12.51 15.5358 13.4075V16.7913C15.5391 17.2912 15.6531 17.784 15.8695 18.2346C16.086 18.6851 16.3996 19.082 16.7878 19.3969C15.1843 19.6853 13.5316 19.5052 12.0278 18.8781C11.8893 18.8247 11.7417 18.7992 11.5933 18.8029C11.445 18.8067 11.2988 18.8396 11.1632 18.8998C11.0275 18.96 10.9051 19.0464 10.8028 19.1539C10.7005 19.2615 10.6205 19.3881 10.5671 19.5266C10.5138 19.6651 10.4883 19.8128 10.492 19.9611C10.4958 20.1095 10.5287 20.2557 10.5889 20.3913C10.6491 20.5269 10.7355 20.6494 10.843 20.7517C10.9506 20.8539 11.0772 20.934 11.2157 20.9873C12.5346 21.5079 13.9375 21.7831 15.3553 21.7995C17.0934 21.8187 18.7992 21.3286 20.2619 20.3895C21.2263 19.7304 21.9132 18.7382 22.1907 17.6035C22.2161 17.5301 22.235 17.4546 22.2471 17.3779C22.2826 17.1843 22.3015 16.9881 22.3035 16.7913V12.2795C22.3243 9.37757 21.281 6.56858 19.3708 4.38386ZM5.3842 12.2795C5.68335 12.2795 5.97025 12.3984 6.18178 12.6099C6.39331 12.8214 6.51215 13.1083 6.51215 13.4075V16.7913C6.51215 17.0905 6.39331 17.3774 6.18178 17.5889C5.97025 17.8005 5.68335 17.9193 5.3842 17.9193C5.08504 17.9193 4.79815 17.8005 4.58661 17.5889C4.37508 17.3774 4.25624 17.0905 4.25624 16.7913V13.4075C4.25624 13.1083 4.37508 12.8214 4.58661 12.6099C4.79815 12.3984 5.08504 12.2795 5.3842 12.2795ZM17.7917 13.4075C17.7917 13.1083 17.9105 12.8214 18.122 12.6099C18.3336 12.3984 18.6205 12.2795 18.9196 12.2795C19.2188 12.2795 19.5057 12.3984 19.7172 12.6099C19.9287 12.8214 20.0476 13.1083 20.0476 13.4075V16.7913C20.0476 17.0905 19.9287 17.3774 19.7172 17.5889C19.5057 17.8005 19.2188 17.9193 18.9196 17.9193C18.6205 17.9193 18.3336 17.8005 18.122 17.5889C17.9105 17.3774 17.7917 17.0905 17.7917 16.7913V13.4075Z" fill="url(#paint0_linear_40_88)"/>
<defs>
<linearGradient id="paint0_linear_40_88" x1="25.0493" y1="1" x2="0.330316" y2="21.4173" gradientUnits="userSpaceOnUse">
<stop stop-color="#C724E1"/>
<stop offset="1" stop-color="#4E22CC"/>
</linearGradient>
</defs>
</svg>
