<svg width="24" height="24" viewBox="0 0 24 24" fill="none" xmlns="http://www.w3.org/2000/svg">
<path d="M4.28151 13.9445C3.7528 12.994 3.48845 12.5188 3.48845 12C3.48845 11.4811 3.7528 11.0059 4.28151 10.0555L5.33905 8.15439L6.45668 6.28798C7.01543 5.35489 7.29481 4.88834 7.74414 4.62892C8.19347 4.3695 8.7372 4.36082 9.82466 4.34348L11.9998 4.30879L14.175 4.34348C15.2625 4.36082 15.8062 4.3695 16.2555 4.62892C16.7048 4.88834 16.9842 5.35489 17.543 6.28798L18.6606 8.15439L19.7181 10.0555C20.2469 11.0059 20.5112 11.4811 20.5112 12C20.5112 12.5188 20.2469 12.994 19.7181 13.9445L18.6606 15.8456L17.543 17.712C16.9842 18.6451 16.7048 19.1116 16.2555 19.3711C15.8062 19.6305 15.2625 19.6392 14.175 19.6565L11.9998 19.6912L9.82466 19.6565C8.7372 19.6392 8.19347 19.6305 7.74414 19.3711C7.29481 19.1116 7.01543 18.6451 6.45668 17.712L5.33905 15.8456L4.28151 13.9445Z" stroke="#C724E1" stroke-width="2.3"/>
<circle cx="12" cy="12" r="2.64" stroke="#C724E1" stroke-width="2.3"/>
</svg>
