<svg width="20" height="21" viewBox="0 0 20 21" fill="none" xmlns="http://www.w3.org/2000/svg">
<path d="M9.7 0C4.4 0 0 4.71716 0 10.5064C0 15.974 3.9 20.3696 8.8 20.9056C9.1 20.9056 9.4 20.9056 9.7 20.9056C15.1 20.9056 19.4 16.1884 19.4 10.5064C19.5 4.71716 15.1 0 9.7 0ZM1.5 10.5064C1.5 5.68204 5.2 1.71533 9.7 1.71533C10.6 1.71533 11.4 1.82254 12.2 2.14416C13 3.43066 13.4 5.03879 13.2 6.5397C13 8.68387 12 9.43433 9.2 9.75595C8.1 9.86316 7 10.3992 6.2 11.2569C5.4 12.1145 4.9 13.1866 4.7 14.3659C4.5 15.7596 4.8 17.0461 5.3 18.011C3 16.4029 1.5 13.6154 1.5 10.5064ZM9.7 19.2975C9.5 19.2975 9.3 19.2975 9.1 19.2975C8.3 18.9759 5.7 17.5822 6.2 14.5803C6.3 13.7227 6.7 12.9722 7.2 12.3289C7.8 11.6857 8.5 11.3641 9.3 11.2569C12.2 10.9352 14.3 10.0776 14.8 6.64691C14.9 5.46762 14.8 4.28833 14.5 3.21625C16.6 4.93158 18 7.50458 18 10.5064C18 15.3308 14.3 19.2975 9.7 19.2975Z" fill="url(#paint0_linear_40_362)"/>
<defs>
<linearGradient id="paint0_linear_40_362" x1="22.0252" y1="6.59629e-07" x2="-2.55332" y2="19.3012" gradientUnits="userSpaceOnUse">
<stop stop-color="#C724E1"/>
<stop offset="1" stop-color="#4E22CC"/>
</linearGradient>
</defs>
</svg>
