<svg width="20" height="20" viewBox="0 0 20 20" fill="none" xmlns="http://www.w3.org/2000/svg">
<path d="M10.1759 17.0812L16.6359 10.1663C17.3959 9.35152 17.8559 8.85836 17.8559 8.07574C17.8559 7.29312 17.3959 6.81069 16.6359 5.9959L13.1559 2.30794C12.3959 1.49316 11.9459 1 11.2059 1C10.4659 1 10.0259 1.49316 9.26592 2.30794L2.81592 9.22287C2.53861 9.47351 2.31372 9.78403 2.15592 10.1341C2.03264 10.4976 1.98155 10.8847 2.00592 11.2705V15.055C2.00592 16.2343 2.00592 16.9526 2.49592 17.5208C2.74005 17.737 3.02352 17.8964 3.32826 17.9886C3.633 18.0809 3.95234 18.1042 4.26592 18.0568H4.74592L8.28592 18.0032C8.62567 18.0166 8.96478 17.9621 9.28592 17.8424C9.60522 17.6704 9.89046 17.4338 10.1259 17.1456M8.74592 16.3522C8.58275 16.3634 8.41908 16.3634 8.25592 16.3522L4.72592 16.4058C4.31847 16.4467 3.90765 16.4251 3.50592 16.3415C3.43769 15.9131 3.42089 15.4772 3.45592 15.0443L3.50592 11.292C3.49073 11.1137 3.49073 10.9343 3.50592 10.7559C3.61076 10.6156 3.72435 10.4831 3.84592 10.3593L7.94592 5.95302L13.1959 11.5707C13.1959 11.5707 8.79592 16.3308 8.74592 16.3522ZM15.5759 9.06206L14.2959 10.4343L9.04592 4.81661L10.3259 3.44435C10.5842 3.12589 10.88 2.84479 11.2059 2.60812C11.5352 2.84424 11.8344 3.12534 12.0959 3.44435L15.5759 7.17519C15.872 7.4531 16.1341 7.7701 16.3559 8.11863C16.1341 8.46715 15.872 8.78415 15.5759 9.06206Z" fill="url(#paint0_linear_40_329)"/>
<defs>
<linearGradient id="paint0_linear_40_329" x1="20" y1="1" x2="-0.0828269" y2="16.7748" gradientUnits="userSpaceOnUse">
<stop stop-color="#C724E1"/>
<stop offset="1" stop-color="#4E22CC"/>
</linearGradient>
</defs>
</svg>
