<svg width="24" height="24" viewBox="0 0 24 24" fill="none" xmlns="http://www.w3.org/2000/svg">
<path fill-rule="evenodd" clip-rule="evenodd" d="M16 2C18.09 2 19.24 2 20.12 2.88C21 3.76 21 4.91 21 7V17C21 19.09 21 20.24 20.12 21.12C19.24 22 18.09 22 16 22H6.5C5.57174 22 4.6815 21.6313 4.02513 20.9749C3.36875 20.3185 3 19.4283 3 18.5V7C3 4.91 3 3.76 3.88 2.88C4.76 2 5.91 2 8 2H16ZM18.71 19.71C19 19.41 19 18.45 19 17V16.78C18.0142 16.9862 17.0053 17.0602 16 17H6.5C6.10218 17 5.72064 17.158 5.43934 17.4393C5.15804 17.7206 5 18.1022 5 18.5C5 18.8978 5.15804 19.2794 5.43934 19.5607C5.72064 19.842 6.10218 20 6.5 20H16C16.0458 20 16.0911 20 16.1359 20C17.5106 20.0003 18.4292 20.0005 18.71 19.71ZM18.71 14.71C19 14.41 19 13.45 19 12V7C19 6.9542 19 6.90888 19 6.86405C19.0003 5.4894 19.0005 4.57084 18.71 4.29C18.41 4 17.45 4 16 4H8C7.9542 4 7.90888 3.99999 7.86405 3.99998C6.4894 3.99968 5.57084 3.99948 5.29 4.29C5 4.59 5 5.55 5 7V15.34C5.46793 15.1149 5.98075 14.9987 6.5 15H16C16.0458 15 16.0911 15 16.136 15C17.5106 15.0003 18.4292 15.0005 18.71 14.71ZM9 7H15C15.2652 7 15.5196 7.10536 15.7071 7.29289C15.8946 7.48043 16 7.73478 16 8C16 8.26522 15.8946 8.51957 15.7071 8.70711C15.5196 8.89464 15.2652 9 15 9H9C8.73478 9 8.48043 8.89464 8.29289 8.70711C8.10536 8.51957 8 8.26522 8 8C8 7.73478 8.10536 7.48043 8.29289 7.29289C8.48043 7.10536 8.73478 7 9 7Z" fill="url(#paint0_linear_40_122)"/>
<defs>
<linearGradient id="paint0_linear_40_122" x1="23.434" y1="2" x2="0.101069" y2="19.7691" gradientUnits="userSpaceOnUse">
<stop stop-color="#C724E1"/>
<stop offset="1" stop-color="#4E22CC"/>
</linearGradient>
</defs>
</svg>
