<svg width="20" height="20" viewBox="0 0 20 20" fill="none" xmlns="http://www.w3.org/2000/svg">
<path fill-rule="evenodd" clip-rule="evenodd" d="M4.08984 15.6875H15.7098C16.7798 15.6875 17.4298 15.6875 17.9498 15.13C18.4601 14.583 18.46 13.912 18.4599 12.803V12.803L18.4598 12.7393V12.5999C18.4583 10.3082 17.657 8.10008 16.2136 6.40975C14.7701 4.71942 12.789 3.66926 10.6598 3.46579V2.60812H11.8998C12.0979 2.60535 12.2872 2.51974 12.4273 2.36955C12.5674 2.21936 12.6473 2.01645 12.6498 1.80406C12.6473 1.59167 12.5674 1.38877 12.4273 1.23857C12.2872 1.08838 12.0979 1.00278 11.8998 1H7.89984C7.70174 1.00278 7.51247 1.08838 7.37238 1.23857C7.23228 1.38877 7.15243 1.59167 7.14984 1.80406C7.15243 2.01645 7.23228 2.21936 7.37238 2.36955C7.51247 2.51974 7.70174 2.60535 7.89984 2.60812H9.15984V3.46579C7.02708 3.6642 5.04107 4.71216 3.59349 6.40301C2.14591 8.09385 1.34183 10.3048 1.33984 12.5999V12.7929C1.33984 13.94 1.33984 14.6369 1.84984 15.1837C2.32429 15.6923 2.91125 15.6906 3.86836 15.6879H3.86845C3.94014 15.6877 4.0139 15.6875 4.08984 15.6875ZM2.83984 12.5999C2.84239 10.6045 3.57881 8.6906 4.8893 7.2736C6.1998 5.85659 7.97865 5.05079 9.83984 5.03103C11.701 5.05079 13.4799 5.85659 14.7904 7.2736C16.1009 8.6906 16.8373 10.6045 16.8398 12.5999V12.7929C16.8666 13.2125 16.8431 13.6341 16.7698 14.0472C16.3823 14.1361 15.985 14.165 15.5898 14.133H4.08984C3.69803 14.1662 3.3038 14.1373 2.91984 14.0472C2.83584 13.6356 2.80888 13.213 2.83984 12.7929V12.5999ZM11.6296 8.70823C12.4615 9.25796 13.1769 9.98835 13.7296 10.8524C13.7964 10.9597 13.8873 11.0473 13.9938 11.1072C14.1004 11.1671 14.2193 11.1975 14.3396 11.1955C14.4928 11.1972 14.6429 11.1486 14.7696 11.0561C14.9193 10.9342 15.0216 10.7572 15.0567 10.5592C15.0918 10.3612 15.0572 10.1563 14.9596 9.98401C14.2848 8.94732 13.4207 8.06832 12.4196 7.40029C12.2531 7.2968 12.0556 7.2669 11.8689 7.31694C11.6822 7.36697 11.5211 7.49301 11.4196 7.66831C11.3304 7.83932 11.3025 8.03935 11.3412 8.23084C11.3799 8.42232 11.4824 8.59208 11.6296 8.70823ZM1.75 18.0247H18.07C18.2689 18.0247 18.4597 18.1094 18.6003 18.2602C18.741 18.411 18.82 18.6155 18.82 18.8287C18.82 19.042 18.741 19.2465 18.6003 19.3973C18.4597 19.5481 18.2689 19.6328 18.07 19.6328H1.75C1.55109 19.6328 1.36032 19.5481 1.21967 19.3973C1.07902 19.2465 1 19.042 1 18.8287C1 18.6155 1.07902 18.411 1.21967 18.2602C1.36032 18.1094 1.55109 18.0247 1.75 18.0247Z" fill="url(#paint0_linear_40_347)"/>
<defs>
<linearGradient id="paint0_linear_40_347" x1="21.2297" y1="1" x2="-0.823969" y2="18.8469" gradientUnits="userSpaceOnUse">
<stop stop-color="#C724E1"/>
<stop offset="1" stop-color="#4E22CC"/>
</linearGradient>
</defs>
</svg>
