<svg width="24" height="24" viewBox="0 0 24 24" fill="none" xmlns="http://www.w3.org/2000/svg">
<path fill-rule="evenodd" clip-rule="evenodd" d="M7 3H17C17.7956 3 18.5587 3.31607 19.1213 3.87868C19.6839 4.44129 20 5.20435 20 6V19C20 19.7956 19.6839 20.5587 19.1213 21.1213C18.5587 21.6839 17.7956 22 17 22H7C6.20435 22 5.44129 21.6839 4.87868 21.1213C4.31607 20.5587 4 19.7956 4 19V6C4 5.20435 4.31607 4.44129 4.87868 3.87868C5.44129 3.31607 6.20435 3 7 3ZM17.7071 19.7071C17.8946 19.5196 18 19.2652 18 19V6C18 5.73478 17.8946 5.48043 17.7071 5.29289C17.5196 5.10536 17.2652 5 17 5H7C6.73478 5 6.48043 5.10536 6.29289 5.29289C6.10536 5.48043 6 5.73478 6 6V19C6 19.2652 6.10536 19.5196 6.29289 19.7071C6.48043 19.8946 6.73478 20 7 20H17C17.2652 20 17.5196 19.8946 17.7071 19.7071ZM9 8H15C15.2652 8 15.5196 8.10536 15.7071 8.29289C15.8946 8.48043 16 8.73478 16 9C16 9.26522 15.8946 9.51957 15.7071 9.70711C15.5196 9.89464 15.2652 10 15 10H9C8.73478 10 8.48043 9.89464 8.29289 9.70711C8.10536 9.51957 8 9.26522 8 9C8 8.73478 8.10536 8.48043 8.29289 8.29289C8.48043 8.10536 8.73478 8 9 8ZM15 12H9C8.73478 12 8.48043 12.1054 8.29289 12.2929C8.10536 12.4804 8 12.7348 8 13C8 13.2652 8.10536 13.5196 8.29289 13.7071C8.48043 13.8946 8.73478 14 9 14H15C15.2652 14 15.5196 13.8946 15.7071 13.7071C15.8946 13.5196 16 13.2652 16 13C16 12.7348 15.8946 12.4804 15.7071 12.2929C15.5196 12.1054 15.2652 12 15 12ZM9 16H13C13.2652 16 13.5196 16.1054 13.7071 16.2929C13.8946 16.4804 14 16.7348 14 17C14 17.2652 13.8946 17.5196 13.7071 17.7071C13.5196 17.8946 13.2652 18 13 18H9C8.73478 18 8.48043 17.8946 8.29289 17.7071C8.10536 17.5196 8 17.2652 8 17C8 16.7348 8.10536 16.4804 8.29289 16.2929C8.48043 16.1054 8.73478 16 9 16Z" fill="url(#paint0_linear_40_108)"/>
<defs>
<linearGradient id="paint0_linear_40_108" x1="22.1636" y1="3" x2="0.429804" y2="18.4865" gradientUnits="userSpaceOnUse">
<stop stop-color="#C724E1"/>
<stop offset="1" stop-color="#4E22CC"/>
</linearGradient>
</defs>
</svg>
